<svg width="100" height="115" viewBox="0 0 100 115" fill="none" xmlns="http://www.w3.org/2000/svg">
<path d="M0 111H7.875L30.7408 58.8458L28.0391 56.8583L25.4436 54.7645L0 111Z" fill="#DB2727"/>
<path d="M99.9844 111L54.2812 10.4531L49.5391 0L45.4922 10.4531L30.1439 44.3759L32.5391 46.6375L35.2325 48.6008L49.4297 16.2188L73.5469 70.9219H71.8266H62.8352H53.8438H33.3984L31.2188 77.25H63.3242H76.2891L91.1953 111H99.9844Z" fill="#DB2727"/>
<path d="M69.2438 35.5642C68.4673 36.6 67.5829 37.4848 66.5906 38.2185L65.5391 40.5V41L68.532 40.8728C69.6968 40.3981 71.0342 39.5996 72.5441 38.4775C74.0541 37.3121 75.4562 35.8879 76.7504 34.2046C78.0878 32.4782 79.2094 30.5145 80.1154 28.3133C81.0645 26.1121 81.5391 23.6736 81.5391 20.9977C81.5391 18.7534 81.0645 16.5522 80.1154 14.3942C79.2094 12.2362 77.7426 10.3156 75.715 8.63237C73.7305 6.94913 71.1636 5.5896 68.0143 4.55376C64.865 3.51792 61.0686 3 56.625 3C54.7318 3 52.8698 3.1107 51.0391 3.3321L52.697 6.95456C52.9056 6.95094 53.1148 6.94913 53.3247 6.94913C56.9054 6.94913 59.9469 7.46705 62.4491 8.50289C64.9513 9.53873 66.9789 10.8983 68.532 12.5815C70.1282 14.2216 71.2715 16.0775 71.9617 18.1491C72.6951 20.1776 73.0618 22.2277 73.0618 24.2994C73.0618 25.6805 72.9108 27.0401 72.6088 28.378C72.3068 29.716 71.8754 30.9892 71.3146 32.1977C70.7538 33.4062 70.0635 34.5283 69.2438 35.5642Z" fill="#818181"/>
<path d="M32.7463 14.1353C35.4211 11.9341 38.5273 10.1861 42.0648 8.89133C43.5463 8.34912 45.0655 7.92043 46.6226 7.60528L48.0948 3.7887C45.9092 4.20367 43.7698 4.78239 41.6766 5.52486C36.9742 7.20809 32.8326 9.58189 29.2519 12.6462C25.6712 15.6674 22.8239 19.3144 20.7099 23.5873C18.596 27.817 17.5391 32.4782 17.5391 37.5711C17.5391 41.3692 18.294 44.6925 19.804 47.541C21.3139 50.3464 23.2984 52.8497 25.7575 55.0509C28.2597 57.252 31.0854 59.2158 34.2347 60.9422C37.384 62.6686 40.598 64.3302 43.8768 65.9272C47.1987 67.5241 50.4342 69.1426 53.5836 70.7827C53.6686 70.8258 53.7534 70.869 53.8379 70.9124H71.8259C71.3327 70.4039 70.8171 69.9074 70.2792 69.4231C67.7339 67.0925 64.8218 64.9992 61.5431 63.1434C58.2644 61.2443 54.9209 59.4316 51.5128 57.7052C48.1046 55.9788 44.7612 54.2308 41.4824 52.4613C38.2037 50.6917 35.2701 48.7711 32.6816 46.6994C30.1363 44.5846 28.0655 42.254 26.4693 39.7075C24.9162 37.1179 24.1397 34.1615 24.1397 30.8382C24.1397 27.6875 24.9162 24.6663 26.4693 21.7746C28.0224 18.8829 30.1147 16.3364 32.7463 14.1353Z" fill="#818181"/>
<path d="M76.2974 97.7144C78.0231 94.3911 78.8859 90.9168 78.8859 87.2913C78.8859 85.2651 78.6587 83.3679 78.2044 81.5996L76.3001 77.2566H63.3269C65.2197 78.9257 66.7822 80.7816 68.0143 82.8243C69.5242 85.2844 70.2792 88.1545 70.2792 91.4347C70.2792 92.6432 70.1282 94.0027 69.8262 95.5133C69.5674 96.9807 69.0713 98.4697 68.3378 99.9803C67.6476 101.491 66.6769 102.958 65.4258 104.383C64.2179 105.764 62.6432 106.994 60.7019 108.073C58.8036 109.152 56.5172 110.037 53.8424 110.727C51.2108 111.375 48.1262 111.698 44.5886 111.698C41.655 111.698 39.0881 111.288 36.8879 110.468C34.6877 109.648 32.8326 108.569 31.3227 107.231C29.8127 105.893 28.6695 104.383 27.893 102.699C27.1596 101.016 26.7929 99.2898 26.7929 97.5202C26.7929 94.9306 27.3537 92.6863 28.4754 90.7873C29.597 88.8882 30.8913 87.3129 32.3581 86.0613C33.8249 84.7665 35.227 83.7954 36.5643 83.148C37.9449 82.4574 38.894 82.0258 39.4117 81.8532L40.5391 80.5L41.0391 80L40.5391 79.65L38.7645 78.5514C37.6429 78.7672 36.3702 79.1125 34.9465 79.5873C33.566 80.0189 32.1208 80.6015 30.6109 81.3353C29.1441 82.0258 27.6988 82.889 26.2752 83.9249C24.8946 84.9175 23.6435 86.1044 22.5219 87.4855C21.4002 88.8235 20.4942 90.3557 19.804 92.0821C19.1569 93.7653 18.8333 95.6644 18.8333 97.7792C18.8333 99.5056 19.2216 101.383 19.9981 103.412C20.7747 105.397 22.1552 107.253 24.1397 108.979C26.1673 110.706 28.8852 112.13 32.2934 113.252C35.7447 114.417 40.1019 115 45.3651 115C50.0675 115 54.4464 114.223 58.5017 112.669C62.6001 111.159 66.1592 109.13 69.1791 106.584C72.199 103.994 74.5718 101.038 76.2974 97.7144Z" fill="#818181"/>
</svg>
